<svg id="Camada_1" data-name="Camada 1" xmlns="http://www.w3.org/2000/svg" viewBox="0 0 1200 300"><defs><style>.cls-1,.cls-2{fill:#fff;}.cls-2{fill-rule:evenodd;}</style></defs><path class="cls-1" d="M613.4,78.2l39.5.1-.2,90.8s-1.3,24.4-21.2,37.4c-23.2,15.2-38.5,11.6-38.5,11.6l.1-34.5s9.1-.6,13.7-4.3c5.4-4.4,6.4-8,6.4-11.4,0-3.7.2-89.7.2-89.7Z"/><polygon class="cls-1" points="661.8 217.8 661.8 78.2 740 78.2 740 111.4 699.6 111.4 699.6 129.8 735.3 129.8 735.3 163 698.9 163 698.9 184.3 738.4 184.3 738.4 217.5 661.8 217.8 661.8 217.8"/><polygon class="cls-1" points="847.1 78 883.2 78 883.2 217.5 847.1 217.5 847.1 78 847.1 78"/><path class="cls-2" d="M401.5,77.5a72.4,72.4,0,1,1-72.4,72.4,72.38,72.38,0,0,1,72.4-72.4Zm.7,35.2a37.8,37.8,0,1,1-37.8,37.8,37.77,37.77,0,0,1,37.8-37.8Z"/><path class="cls-2" d="M1090.6,77.5a72.4,72.4,0,1,1-72.4,72.4,72.38,72.38,0,0,1,72.4-72.4Zm.6,35.2a37.8,37.8,0,1,1-37.8,37.8,37.77,37.77,0,0,1,37.8-37.8Z"/><polygon class="cls-1" points="948.1 217.5 890.5 78 930.3 78 961.8 153.9 993.4 78 1033.2 78 975.7 217.5 948.1 217.5 948.1 217.5"/><path class="cls-2" d="M521.6,109.4v21.4H535s10-1,10-10.4c0-10.5-9-11-9-11Zm0,54.9v21.4h17.7s11-.7,11-10c0-10.5-7.4-11.4-7.4-11.4ZM486.2,78.2V217.5H544s42.5-5.6,42.5-37.8c0-24.7-26.8-35.5-26.8-35.5s18.4-7.7,18.4-27.8c0-35.1-40.5-38.2-40.5-38.2Z"/><polygon class="cls-1" points="747.7 78.2 747.7 111.3 776.2 111.3 776.2 217.5 812.2 217.5 812.2 111.3 840.7 111.3 840.7 78.2 747.7 78.2 747.7 78.2"/><path class="cls-1" d="M74.2,112A37.15,37.15,0,1,1,37,149.2,37.11,37.11,0,0,1,74.2,112Z"/><polygon class="cls-1" points="56.4 77.5 83.4 77.5 155.7 149.8 84.1 219.8 54.8 219.8 126.4 149.5 56.4 77.5 56.4 77.5"/><path class="cls-1" d="M198.5,81a72,72,0,1,1,19.3,141.4,71.21,71.21,0,0,1-19.2-2.6L267.8,151,198.5,81Z"/><path class="cls-2" d="M186.3,113.3a37.15,37.15,0,1,1-37.1,37.2,37.19,37.19,0,0,1,37.1-37.2Zm-7.1-23.7,59.3,61.2-60.2,59.9a72.05,72.05,0,0,1-32.5-60.3,70.84,70.84,0,0,1,33.4-60.8Z"/></svg>