<?xml version="1.0" encoding="utf-8"?>
<!-- Generator: Adobe Illustrator 25.2.0, SVG Export Plug-In . SVG Version: 6.00 Build 0)  -->
<svg version="1.1" id="Camada_1" xmlns="http://www.w3.org/2000/svg" xmlns:xlink="http://www.w3.org/1999/xlink" x="0px" y="0px"
	 viewBox="0 0 1200 300" style="enable-background:new 0 0 1200 300;" xml:space="preserve">
<style type="text/css">
	.st0{fill:#14387F;}
	.st1{fill-rule:evenodd;clip-rule:evenodd;fill:#14387F;}
</style>
<g>
	<path class="st0" d="M613.4,78.2l39.5,0.1l-0.2,90.8c0,0-1.3,24.4-21.2,37.4c-23.2,15.2-38.5,11.6-38.5,11.6l0.1-34.5
		c0,0,9.1-0.6,13.7-4.3c5.4-4.4,6.4-8,6.4-11.4C613.2,164.2,613.4,78.2,613.4,78.2L613.4,78.2L613.4,78.2z"/>
	<polygon class="st0" points="661.8,217.8 661.8,78.2 740,78.2 740,111.4 699.6,111.4 699.6,129.8 735.3,129.8 735.3,163 698.9,163 
		698.9,184.3 738.4,184.3 738.4,217.5 661.8,217.8 661.8,217.8 	"/>
	<polygon class="st0" points="847.1,78 883.2,78 883.2,217.5 847.1,217.5 847.1,78 847.1,78 	"/>
	<path class="st1" d="M401.5,77.5c40,0,72.4,32.4,72.4,72.4c0,40-32.4,72.4-72.4,72.4c-40,0-72.4-32.4-72.4-72.4
		C329.2,109.9,361.6,77.5,401.5,77.5L401.5,77.5L401.5,77.5z M402.2,112.7c20.9,0,37.8,16.9,37.8,37.8c0,20.9-16.9,37.8-37.8,37.8
		c-20.9,0-37.8-16.9-37.8-37.8C364.4,129.7,381.3,112.7,402.2,112.7L402.2,112.7L402.2,112.7z"/>
	<path class="st1" d="M1090.6,77.5c40,0,72.4,32.4,72.4,72.4c0,40-32.4,72.4-72.4,72.4c-40,0-72.4-32.4-72.4-72.4
		C1018.2,109.9,1050.6,77.5,1090.6,77.5L1090.6,77.5L1090.6,77.5z M1091.2,112.7c20.9,0,37.8,16.9,37.8,37.8
		c0,20.9-16.9,37.8-37.8,37.8c-20.9,0-37.8-16.9-37.8-37.8C1053.4,129.7,1070.3,112.7,1091.2,112.7L1091.2,112.7L1091.2,112.7z"/>
	<polygon class="st0" points="948.1,217.5 890.5,78 930.3,78 961.8,153.9 993.4,78 1033.2,78 975.7,217.5 948.1,217.5 948.1,217.5 	
		"/>
	<path class="st1" d="M521.6,109.4v21.4H535c0,0,10-1,10-10.4c0-10.5-9-11-9-11H521.6L521.6,109.4L521.6,109.4z M521.6,164.3v21.4
		h17.7c0,0,11-0.7,11-10c0-10.5-7.4-11.4-7.4-11.4H521.6L521.6,164.3L521.6,164.3z M486.2,78.2v139.3H544c0,0,42.5-5.6,42.5-37.8
		c0-24.7-26.8-35.5-26.8-35.5s18.4-7.7,18.4-27.8c0-35.1-40.5-38.2-40.5-38.2H486.2L486.2,78.2L486.2,78.2z"/>
	<polygon class="st0" points="747.7,78.2 747.7,111.3 776.2,111.3 776.2,217.5 812.2,217.5 812.2,111.3 840.7,111.3 840.7,78.2 
		747.7,78.2 747.7,78.2 	"/>
	<path class="st0" d="M74.2,112c20.5,0,37.1,16.6,37.1,37.2c0,20.5-16.6,37.1-37.1,37.1c-20.5,0-37.2-16.6-37.2-37.1
		C37.1,128.6,53.7,112,74.2,112L74.2,112L74.2,112z"/>
	<polygon class="st0" points="56.4,77.5 83.4,77.5 155.7,149.8 84.1,219.8 54.8,219.8 126.4,149.5 56.4,77.5 56.4,77.5 	"/>
	<path class="st0" d="M198.5,81c6.1-1.7,12.6-2.6,19.3-2.6c39.8,0,72,32.3,72,72c0,39.8-32.3,72-72,72c-6.7,0-13.1-0.9-19.2-2.6
		l69.2-68.8L198.5,81L198.5,81L198.5,81z"/>
	<path class="st1" d="M186.3,113.3c20.5,0,37.2,16.6,37.2,37.2c0,20.5-16.6,37.1-37.2,37.1c-20.5,0-37.1-16.6-37.1-37.1
		C149.1,129.9,165.8,113.3,186.3,113.3L186.3,113.3L186.3,113.3z M179.2,89.6l59.3,61.2l-60.2,59.9c-19.6-12.9-32.5-35.1-32.5-60.3
		C145.8,124.6,158.8,102.3,179.2,89.6L179.2,89.6L179.2,89.6z"/>
</g>
</svg>
