<svg id="Camada_1" data-name="Camada 1" xmlns="http://www.w3.org/2000/svg" viewBox="0 0 330.44 300"><defs><style>.cls-1,.cls-2{fill:#14387f;}.cls-2{fill-rule:evenodd;}</style></defs><path class="cls-1" d="M74.2,112A37.15,37.15,0,1,1,37,149.2,37.11,37.11,0,0,1,74.2,112Z"/><polygon class="cls-1" points="56.4 77.5 83.4 77.5 155.7 149.8 84.1 219.8 54.8 219.8 126.4 149.5 56.4 77.5 56.4 77.5"/><path class="cls-1" d="M198.5,81a72,72,0,1,1,19.3,141.4,71.21,71.21,0,0,1-19.2-2.6L267.8,151,198.5,81Z"/><path class="cls-2" d="M186.3,113.3a37.15,37.15,0,1,1-37.1,37.2,37.19,37.19,0,0,1,37.1-37.2Zm-7.1-23.7,59.3,61.2-60.2,59.9a72.05,72.05,0,0,1-32.5-60.3,70.84,70.84,0,0,1,33.4-60.8Z"/></svg>